# File created by Blade
# Date/Time:  Mon Sep 22 15:39:46 2014
# Frame Rate: 120.000 fps
#------------------------------------------------------
:FULLY-SPECIFIED
:DEGREES
3483
root 0.678946 36.977833 3.008998 0.845255 -17.101732 0.128715
RightUpLeg 7.308936 5.082109 -0.208356
RightLeg -6.173835 -0.000000 0.000000
RightFoot -11.196417 -11.672796 14.738702
RightToeBase 15.077278 -0.000000 -0.000000
LeftUpLeg 10.007383 13.008872 5.292246
LeftLeg -3.423812 -0.000000 0.000000
LeftFoot -11.516947 15.958063 -20.710559
LeftToeBase 7.263174 -0.000000 -0.000000
Spine 5.931384 -24.774641 -9.152637
RightShoulder -4.672728 -23.141272 -24.888138
RightArm -169.083860 -176.079194 -163.131167
RightForeArm 95.911847 0.000000 108.640819
RightHand 2.817187 -0.000000 -20.731903
RightHandThumb1 -24.326973 -0.000000 -32.862282
LeftShoulder -17.725022 41.927596 -7.185468
LeftArm 29.063614 8.058264 -56.866383
LeftForeArm 19.836774 0.000000 40.502992
LeftHand -15.412935 -0.000000 -12.555146
LeftHandThumb1 -26.253704 0.000000 33.147579
Head -0.305322 -45.050488 5.084394
3484
root 0.682724 36.977031 3.017072 0.888764 -17.025075 0.143460
RightUpLeg 7.287688 5.074876 -0.229038
RightLeg -6.183811 -0.000000 0.000000
RightFoot -11.207638 -11.746497 14.685433
RightToeBase 15.059721 -0.000000 -0.000000
LeftUpLeg 9.961640 12.960748 5.262043
LeftLeg -3.440769 -0.000000 0.000000
LeftFoot -11.500856 15.938275 -20.693497
LeftToeBase 7.257148 -0.000000 -0.000000
Spine 5.852731 -24.923885 -9.115246
RightShoulder -4.727846 -22.685186 -24.792583
RightArm -169.922265 -178.459269 -162.170576
RightForeArm 96.023023 -0.000000 108.869664
RightHand 3.281051 -0.000000 -20.934840
RightHandThumb1 -24.326973 -0.000000 -32.862282
LeftShoulder -17.771450 41.900354 -7.159253
LeftArm 28.991405 8.109202 -57.103334
LeftForeArm 19.792360 -0.000000 40.448294
LeftHand -15.394973 -0.000000 -12.529398
LeftHandThumb1 -26.253704 0.000000 33.147579
Head -0.256704 -44.990917 5.152045
3485
root 0.683581 36.976877 3.025375 0.926801 -16.961721 0.140597
RightUpLeg 7.269031 5.063440 -0.228206
RightLeg -6.182034 -0.000000 0.000000
RightFoot -11.240410 -11.777445 14.712301
RightToeBase 15.035259 -0.000000 -0.000000
LeftUpLeg 9.895555 13.069796 5.272360
LeftLeg -3.376771 -0.000000 0.000000
LeftFoot -11.482020 15.795521 -20.624515
LeftToeBase 7.259579 -0.000000 -0.000000
Spine 5.780932 -25.047784 -9.067147
RightShoulder -4.775333 -22.188955 -24.676987
RightArm -170.771908 178.947337 -161.156567
RightForeArm 96.199030 -0.000000 109.039468
RightHand 3.728637 -0.000000 -21.037822
RightHandThumb1 -24.326973 -0.000000 -32.862282
LeftShoulder -17.829466 41.935747 -7.115075
LeftArm 29.019870 8.141268 -57.385846
LeftForeArm 19.879862 -0.000000 40.323721
LeftHand -15.493008 -0.000000 -12.355991
LeftHandThumb1 -26.253704 0.000000 33.147579
Head -0.188228 -44.925236 5.213919
3486
root 0.685245 36.976535 3.033196 0.977246 -16.900250 0.142263
RightUpLeg 7.246902 5.067544 -0.234969
RightLeg -6.202280 -0.000000 0.000000
RightFoot -11.254512 -11.826397 14.750138
RightToeBase 15.044140 -0.000000 -0.000000
LeftUpLeg 9.841383 13.073930 5.259267
LeftLeg -3.376656 -0.000000 0.000000
LeftFoot -11.466024 15.769023 -20.585696
LeftToeBase 7.215149 -0.000000 -0.000000
Spine 5.697637 -25.167475 -9.019014
RightShoulder -4.786327 -21.626007 -24.565850
RightArm -171.664349 176.103704 -160.070772
RightForeArm 96.324177 -0.000000 109.212591
RightHand 4.547912 -0.000000 -21.953838
RightHandThumb1 -24.326973 -0.000000 -32.862282
LeftShoulder -17.876703 41.927828 -7.065767
LeftArm 29.010162 8.168404 -57.670267
LeftForeArm 20.024388 -0.000000 40.196477
LeftHand -15.496361 -0.000000 -12.421520
LeftHandThumb1 -26.253704 0.000000 33.147579
Head -0.140963 -44.858165 5.316398
3487
root 0.687798 36.975719 3.038988 1.039726 -16.831696 0.138456
RightUpLeg 7.200522 5.025608 -0.231679
RightLeg -6.208491 -0.000000 0.000000
RightFoot -11.298971 -11.873273 14.843961
RightToeBase 15.110095 -0.000000 -0.000000
LeftUpLeg 9.796577 13.018996 5.242165
LeftLeg -3.421743 -0.000000 0.000000
LeftFoot -11.453642 15.764201 -20.575163
LeftToeBase 7.242694 -0.000000 -0.000000
Spine 5.602110 -25.296836 -8.929938
RightShoulder -4.701199 -20.957026 -24.513353
RightArm -172.759509 172.938508 -158.880515
RightForeArm 96.563282 -0.000000 109.515524
RightHand 4.435096 -0.000000 -21.273869
RightHandThumb1 -24.326973 -0.000000 -32.862282
LeftShoulder -17.922452 41.894204 -7.045305
LeftArm 28.977207 8.204443 -57.906047
LeftForeArm 20.004555 -0.000000 40.074299
LeftHand -15.302793 0.000000 -12.825864
LeftHandThumb1 -26.253704 0.000000 33.147579
Head -0.102840 -44.829776 5.322160
3488
root 0.692350 36.975151 3.046552 1.091082 -16.772574 0.143920
RightUpLeg 7.165062 5.019093 -0.248930
RightLeg -6.200377 -0.000000 0.000000
RightFoot -11.290492 -11.912543 14.744008
RightToeBase 15.027035 -0.000000 -0.000000
LeftUpLeg 9.735476 13.061201 5.226049
LeftLeg -3.410205 -0.000000 0.000000
LeftFoot -11.444916 15.690248 -20.549045
LeftToeBase 7.242485 -0.000000 -0.000000
Spine 5.526154 -25.392675 -8.865116
RightShoulder -4.672653 -20.256344 -24.400256
RightArm -173.749301 169.525869 -157.764882
RightForeArm 96.469505 -0.000000 109.686033
RightHand 4.695512 -0.000000 -21.360660
RightHandThumb1 -24.326973 -0.000000 -32.862282
LeftShoulder -17.944998 41.877572 -6.986151
LeftArm 28.976524 8.314191 -58.142703
LeftForeArm 19.720104 0.000000 39.949154
LeftHand -15.419559 -0.000000 -12.425298
LeftHandThumb1 -26.253704 0.000000 33.147579
Head -0.078948 -44.766089 5.421764
3489
root 0.696245 36.974342 3.054229 1.148149 -16.709606 0.139005
RightUpLeg 7.125521 4.990206 -0.251216
RightLeg -6.197971 -0.000000 0.000000
RightFoot -11.320871 -11.928505 14.784981
RightToeBase 15.018706 -0.000000 -0.000000
LeftUpLeg 9.694074 12.932248 5.198435
LeftLeg -3.445083 -0.000000 0.000000
LeftFoot -11.453835 15.766204 -20.534939
LeftToeBase 7.236833 -0.000000 -0.000000
Spine 5.442739 -25.459979 -8.778235
RightShoulder -4.671028 -19.591129 -24.247735
RightArm -174.681113 165.747359 -156.669387
RightForeArm 96.446507 0.000000 109.815248
RightHand 5.193909 -0.000000 -21.585041
RightHandThumb1 -24.326973 -0.000000 -32.862282
LeftShoulder -17.935428 41.895433 -6.904012
LeftArm 28.984036 8.330647 -58.430609
LeftForeArm 19.852679 -0.000000 39.850549
LeftHand -15.436741 -0.000000 -12.307348
LeftHandThumb1 -26.253704 0.000000 33.147579
Head -0.056853 -44.745349 5.490883
3490
root 0.698819 36.972718 3.066972 1.171962 -16.657698 0.138782
RightUpLeg 7.141740 4.950413 -0.247379
RightLeg -6.240076 -0.000000 0.000000
RightFoot -11.355632 -12.001822 14.832020
RightToeBase 15.075526 -0.000000 -0.000000
LeftUpLeg 9.704263 12.883417 5.188499
LeftLeg -3.497402 -0.000000 0.000000
LeftFoot -11.452521 15.758971 -20.549411
LeftToeBase 7.244279 -0.000000 -0.000000
Spine 5.397948 -25.496619 -8.715854
RightShoulder -4.622429 -18.759669 -24.142907
RightArm -175.709308 161.811515 -155.604586
RightForeArm 96.464289 0.000000 109.904659
RightHand 5.611237 -0.000000 -21.533639
RightHandThumb1 -24.326973 -0.000000 -32.862282
LeftShoulder -17.924892 41.877193 -6.816051
LeftArm 28.993165 8.385424 -58.662062
LeftForeArm 19.847998 -0.000000 39.725573
LeftHand -15.350125 -0.000000 -12.658081
LeftHandThumb1 -26.253704 0.000000 33.147579
Head -0.081846 -44.730767 5.618410
3491
root 0.705545 36.972247 3.072547 1.253769 -16.598410 0.151565
RightUpLeg 7.072754 4.932578 -0.274769
RightLeg -6.247518 -0.000000 0.000000
RightFoot -11.325833 -12.065223 14.709716
RightToeBase 14.966923 -0.000000 -0.000000
LeftUpLeg 9.607733 12.949111 5.160309
LeftLeg -3.484474 -0.000000 0.000000
LeftFoot -11.419882 15.663114 -20.491395
LeftToeBase 7.228126 -0.000000 -0.000000
Spine 5.291851 -25.558226 -8.608400
RightShoulder -4.557917 -17.733438 -24.123831
RightArm -176.717458 157.787496 -154.549779
RightForeArm 96.443217 -0.000000 109.964711
RightHand 6.476315 -0.000000 -22.083262
RightHandThumb1 -24.326973 -0.000000 -32.862282
LeftShoulder -17.955794 41.879964 -6.786836
LeftArm 29.028642 8.445546 -58.888386
LeftForeArm 19.729424 -0.000000 39.612064
LeftHand -15.315109 0.000000 -12.512085
LeftHandThumb1 -26.253704 0.000000 33.147579
Head -0.158916 -44.687239 5.728039
